<svg xmlns="http://www.w3.org/2000/svg" version="1.1" xmlns:xlink="http://www.w3.org/1999/xlink" xmlns:svgjs="http://svgjs.com/svgjs" width="1440" height="560" preserveAspectRatio="none" viewBox="0 0 1440 560"><g mask="url(&quot;#SvgjsMask2150&quot;)" fill="none"><rect width="1440" height="560" x="0" y="0" fill="url(#SvgjsLinearGradient2151)"></rect><path d="M324.35 603.14C439.23 600.7 539.12 445.64 756.1 445.53 973.09 445.42 971.98 515.53 1187.86 515.53 1403.73 515.53 1510.26 445.76 1619.61 445.53" stroke="rgba(255, 241, 229, 0.58)" stroke-width="2"></path><path d="M332.41 653.78C454.14 635.43 406.83 353.24 716.08 345.12 1025.32 337 1288.15 200.16 1483.41 199.52" stroke="rgba(255, 241, 229, 0.58)" stroke-width="2"></path><path d="M621.23 647.07C733.46 634.13 686.19 396.57 989.32 384.91 1292.46 373.25 1531.89 147.14 1725.51 144.11" stroke="rgba(255, 241, 229, 0.58)" stroke-width="2"></path><path d="M438.19 649.97C614.89 629.37 696.34 249.85 1016.8 235.8 1337.27 221.75 1446.6 96.79 1595.42 95.8" stroke="rgba(255, 241, 229, 0.58)" stroke-width="2"></path><path d="M251.84 575.28C444.32 559.93 575.1 175.24 911.72 173.91 1248.34 172.58 1403.24 307.63 1571.6 308.31" stroke="rgba(255, 241, 229, 0.58)" stroke-width="2"></path></g><defs><mask id="SvgjsMask2150"><rect width="1440" height="560" fill="#ffffff"></rect></mask><linearGradient x1="15.28%" y1="-39.29%" x2="84.72%" y2="139.29%" gradientUnits="userSpaceOnUse" id="SvgjsLinearGradient2151"><stop stop-color="rgba(200, 199, 197, 1)" offset="0.08"></stop><stop stop-color="rgba(211, 205, 184, 1)" offset="0.91"></stop></linearGradient></defs></svg>