<svg xmlns="http://www.w3.org/2000/svg" version="1.1" xmlns:xlink="http://www.w3.org/1999/xlink" xmlns:svgjs="http://svgjs.com/svgjs" width="1440" height="560" preserveAspectRatio="none" viewBox="0 0 1440 560"><g mask="url(&quot;#SvgjsMask1027&quot;)" fill="none"><path d="M1109 74L1108 424" stroke-width="10" stroke="url(#SvgjsLinearGradient1028)" stroke-linecap="round" class="Down"></path><path d="M844 362L843 556" stroke-width="6" stroke="url(#SvgjsLinearGradient1028)" stroke-linecap="round" class="Down"></path><path d="M993 244L992 499" stroke-width="10" stroke="url(#SvgjsLinearGradient1029)" stroke-linecap="round" class="Up"></path><path d="M1069 273L1068 543" stroke-width="8" stroke="url(#SvgjsLinearGradient1029)" stroke-linecap="round" class="Up"></path><path d="M1418 225L1417 614" stroke-width="8" stroke="url(#SvgjsLinearGradient1028)" stroke-linecap="round" class="Down"></path><path d="M372 395L371 681" stroke-width="8" stroke="url(#SvgjsLinearGradient1028)" stroke-linecap="round" class="Down"></path><path d="M1252 228L1251 36" stroke-width="10" stroke="url(#SvgjsLinearGradient1029)" stroke-linecap="round" class="Up"></path><path d="M319 82L318 435" stroke-width="6" stroke="url(#SvgjsLinearGradient1029)" stroke-linecap="round" class="Up"></path><path d="M1425 245L1424 -134" stroke-width="6" stroke="url(#SvgjsLinearGradient1029)" stroke-linecap="round" class="Up"></path><path d="M928 510L927 711" stroke-width="10" stroke="url(#SvgjsLinearGradient1029)" stroke-linecap="round" class="Up"></path><path d="M1209 500L1208 806" stroke-width="10" stroke="url(#SvgjsLinearGradient1029)" stroke-linecap="round" class="Up"></path><path d="M26 246L25 -87" stroke-width="8" stroke="url(#SvgjsLinearGradient1029)" stroke-linecap="round" class="Up"></path><path d="M362 551L361 723" stroke-width="10" stroke="url(#SvgjsLinearGradient1028)" stroke-linecap="round" class="Down"></path><path d="M59 1L58 -168" stroke-width="10" stroke="url(#SvgjsLinearGradient1029)" stroke-linecap="round" class="Up"></path><path d="M403 546L402 250" stroke-width="8" stroke="url(#SvgjsLinearGradient1029)" stroke-linecap="round" class="Up"></path><path d="M1061 519L1060 759" stroke-width="8" stroke="url(#SvgjsLinearGradient1028)" stroke-linecap="round" class="Down"></path><path d="M942 38L941 -299" stroke-width="10" stroke="url(#SvgjsLinearGradient1028)" stroke-linecap="round" class="Down"></path><path d="M1075 349L1074 594" stroke-width="10" stroke="url(#SvgjsLinearGradient1029)" stroke-linecap="round" class="Up"></path><path d="M1132 240L1131 400" stroke-width="8" stroke="url(#SvgjsLinearGradient1029)" stroke-linecap="round" class="Up"></path><path d="M729 411L728 165" stroke-width="8" stroke="url(#SvgjsLinearGradient1028)" stroke-linecap="round" class="Down"></path><path d="M812 160L811 370" stroke-width="6" stroke="url(#SvgjsLinearGradient1029)" stroke-linecap="round" class="Up"></path><path d="M65 123L64 524" stroke-width="6" stroke="url(#SvgjsLinearGradient1028)" stroke-linecap="round" class="Down"></path><path d="M1259 356L1258 544" stroke-width="10" stroke="url(#SvgjsLinearGradient1028)" stroke-linecap="round" class="Down"></path><path d="M1227 34L1226 -313" stroke-width="8" stroke="url(#SvgjsLinearGradient1028)" stroke-linecap="round" class="Down"></path><path d="M363 558L362 369" stroke-width="10" stroke="url(#SvgjsLinearGradient1029)" stroke-linecap="round" class="Up"></path><path d="M1168 16L1167 -228" stroke-width="8" stroke="url(#SvgjsLinearGradient1028)" stroke-linecap="round" class="Down"></path><path d="M1332 559L1331 906" stroke-width="10" stroke="url(#SvgjsLinearGradient1028)" stroke-linecap="round" class="Down"></path><path d="M758 508L757 129" stroke-width="8" stroke="url(#SvgjsLinearGradient1029)" stroke-linecap="round" class="Up"></path><path d="M837 300L836 -9" stroke-width="6" stroke="url(#SvgjsLinearGradient1029)" stroke-linecap="round" class="Up"></path><path d="M108 225L107 598" stroke-width="8" stroke="url(#SvgjsLinearGradient1029)" stroke-linecap="round" class="Up"></path><path d="M999 73L998 354" stroke-width="6" stroke="url(#SvgjsLinearGradient1029)" stroke-linecap="round" class="Up"></path><path d="M521 116L520 325" stroke-width="6" stroke="url(#SvgjsLinearGradient1028)" stroke-linecap="round" class="Down"></path><path d="M1433 377L1432 10" stroke-width="10" stroke="url(#SvgjsLinearGradient1029)" stroke-linecap="round" class="Up"></path><path d="M1095 497L1094 690" stroke-width="6" stroke="url(#SvgjsLinearGradient1028)" stroke-linecap="round" class="Down"></path><path d="M125 261L124 461" stroke-width="10" stroke="url(#SvgjsLinearGradient1028)" stroke-linecap="round" class="Down"></path><path d="M138 147L137 -50" stroke-width="10" stroke="url(#SvgjsLinearGradient1028)" stroke-linecap="round" class="Down"></path></g><defs><mask id="SvgjsMask1027"><rect width="1440" height="560" fill="#ffffff"></rect></mask><linearGradient x1="0%" y1="0%" x2="0%" y2="100%" id="SvgjsLinearGradient1028"><stop stop-color="rgba(224, 219, 213, 0)" offset="0"></stop><stop stop-color="rgba(224, 219, 213, 1)" offset="1"></stop></linearGradient><linearGradient x1="0%" y1="100%" x2="0%" y2="0%" id="SvgjsLinearGradient1029"><stop stop-color="rgba(224, 219, 213, 0)" offset="0"></stop><stop stop-color="rgba(224, 219, 213, 1)" offset="1"></stop></linearGradient></defs></svg>