<svg xmlns="http://www.w3.org/2000/svg" version="1.1" xmlns:xlink="http://www.w3.org/1999/xlink" xmlns:svgjs="http://svgjs.com/svgjs" width="1440" height="250" preserveAspectRatio="none" viewBox="0 0 1440 250"><g mask="url(&quot;#SvgjsMask1006&quot;)" fill="none"><path d="M16 250L266 0L515 0L265 250z" fill="url(#SvgjsLinearGradient1007)"></path><path d="M273.6 250L523.6 0L690.1 0L440.1 250z" fill="url(#SvgjsLinearGradient1007)"></path><path d="M501.20000000000005 250L751.2 0L814.2 0L564.2 250z" fill="url(#SvgjsLinearGradient1007)"></path><path d="M734.8000000000001 250L984.8000000000001 0L1116.8000000000002 0L866.8000000000001 250z" fill="url(#SvgjsLinearGradient1007)"></path><path d="M1408 250L1158 0L846 0L1096 250z" fill="url(#SvgjsLinearGradient1008)"></path><path d="M1174.4 250L924.4000000000001 0L810.4000000000001 0L1060.4 250z" fill="url(#SvgjsLinearGradient1008)"></path><path d="M938.8 250L688.8 0L544.8 0L794.8 250z" fill="url(#SvgjsLinearGradient1008)"></path><path d="M725.1999999999999 250L475.19999999999993 0L250.19999999999993 0L500.19999999999993 250z" fill="url(#SvgjsLinearGradient1008)"></path><path d="M1223.060309692658 250L1440 33.060309692657825L1440 250z" fill="url(#SvgjsLinearGradient1007)"></path><path d="M0 250L216.93969030734218 250L 0 33.060309692657825z" fill="url(#SvgjsLinearGradient1008)"></path></g><defs><mask id="SvgjsMask1006"><rect width="1440" height="250" fill="#ffffff"></rect></mask><linearGradient x1="0%" y1="100%" x2="100%" y2="0%" id="SvgjsLinearGradient1007"><stop stop-color="rgba(224, 219, 213, 0.7)" offset="0"></stop><stop stop-opacity="0" stop-color="rgba(224, 219, 213, 0.7)" offset="0.66"></stop></linearGradient><linearGradient x1="100%" y1="100%" x2="0%" y2="0%" id="SvgjsLinearGradient1008"><stop stop-color="rgba(224, 219, 213, 0.7)" offset="0"></stop><stop stop-opacity="0" stop-color="rgba(224, 219, 213, 0.7)" offset="0.66"></stop></linearGradient></defs></svg>