<?xml version="1.0" encoding="UTF-8" standalone="no"?>
<svg id="svg2" xmlns:rdf="http://www.w3.org/1999/02/22-rdf-syntax-ns#" xmlns="http://www.w3.org/2000/svg" height="649.26" width="1169.4" version="1.1" xmlns:cc="http://creativecommons.org/ns#" xmlns:dc="http://purl.org/dc/elements/1.1/" viewBox="0 0 1169.4456 649.25586">
<path id="path4231" d="m1137.2 2.055s0.5323 0.767 1.3934 2.2187c0.8609 1.4516 2.0449 3.5965 3.2226 6.396 1.1777 2.7994 2.3438 6.2588 3.13 10.274 0.7862 4.015 1.1858 8.5867 0.8892 13.5-0.444 5.3186-1.636 10.719-3.5118 15.795-1.8756 5.0765-4.4281 9.8216-7.3499 13.94-4.1281 5.9331-8.8556 10.744-13.048 14.255-1.7834 1.4935-3.4264 2.7107-4.9195 3.7602-0.5287 0.41301-1.0485 0.8425-1.5861 1.2388-9.0649 6.6797-19.297 11.573-29.637 15.833-37.277 15.374-76.964 23.561-117.04 28.914 25.506 4.0971 50.764 13.609 73.094 29.358 13.544 9.4557 26.79 21.69 37.709 37.444 8.1282 11.606 13.952 25.969 15.858 42.339 0.1376 1.4809 0.2269 2.9604 0.2822 4.4385 1.4311 3.2119 3.074 6.4904 5.0279 9.752 2.3516 3.9522 5.2371 8.002 8.7527 11.423 0.532 0.51755 1.1019 1.0176 1.7065 1.4972 1.5003 1.1944 3.2705 2.2712 5.1276 2.9885 1.8591 0.71664 3.8031 1.0703 5.5761 0.79589 2.5329-0.49008 4.4872-2.3724 4.3742-4.4263 0.2791-1.1408 0.2382-2.5127 0.1902-3.9026-0.05-1.3906-0.098-2.7967 0.1189-4.0478 0.7121-3.582 0.9642-6.6782 1.8686-8.9077 0.8699-2.1479 2.1462-4.2644 3.9083-6.2597 1.7613-1.9939 4.0106-3.8584 6.6571-5.2632 2.6459-1.4068 5.6772-2.3389 8.8985-2.4145 3.2229-0.0748 6.6263 0.71091 10.092 2.6924 3.4666 1.9836 6.149 4.7431 8.0703 8.0391 1.9226 3.2966 3.0766 7.138 3.3141 11.261 0.2374 4.1226-0.4691 8.5336-2.1541 12.779-1.6866 4.2451-4.3661 8.3163-7.6548 11.566-1.5783 1.5596-4.1895 4.0749-7.9778 7.122-1.8456 1.6477-4.3584 3.3747-7.7572 4.9609-3.398 1.5848-7.6826 3.0272-13.012 3.9976-8.23 0.80056-16.403-1.0458-23.329-5.9566-6.5315-5.1782-10.882-10.812-13.013-15.949-0.8445-1.7789-1.5922-3.5467-2.2661-5.2924-1.0013 3.2368-2.2092 6.4164-3.6262 9.523-1.4823 3.1669-3.1293 6.206-4.9248 9.1099-2.8262 4.5673-5.8308 8.5188-8.8862 11.985-3.0553 3.4662-6.162 6.4458-9.2575 9.048-5.5636 4.7379-11.035 8.3484-16.37 11.246-5.3347 2.8979-10.542 5.0825-15.756 6.7706-5.7309 1.9023-11.534 3.1507-17.686 3.757-6.1521 0.60616-12.66 0.57603-19.826-0.42875-4.5592-0.67028-9.274-1.7945-14.131-3.5394-3.9094-1.4044-7.7756-3.4006-11.363-5.8979-3.5878-2.4973-6.8942-5.4926-9.7321-8.8079-3.8358-4.7259-6.5719-9.7565-8.2266-14.582-1.6544-4.826-2.2414-9.442-2.0266-13.469 0.21439-4.0273 1.2186-7.4663 2.7108-10.121 1.4918-2.6546 3.4643-4.5277 5.7334-5.5951 2.5782-1.2127 5.5973-2.227 8.8078-2.8802 3.2101-0.65302 6.612-0.9485 9.9472-0.87318 3.3352 0.0756 6.596 0.52457 9.5165 1.2203 1.4606 0.34771 2.8366 0.7558 4.1148 1.1826 1.2778 0.42677 2.4555 0.87193 3.5777 1.2611 0.1833 0.0877 0.3704 0.18049 0.5598 0.27833 1.5059 0.77553 2.9493 1.4642 4.2747 2.2174 1.3254 0.75305 2.5412 1.5593 3.681 2.4499 1.9686 1.4989 3.9492 3.1063 5.7303 4.937 1.781 1.8306 3.3633 3.8707 4.5783 6.0429 1.2151 2.1723 2.0592 4.4767 2.4296 6.7402s0.2612 4.4847-0.3028 6.4046c-0.3213 1.0934-0.8848 2.4384-1.5506 3.8747-0.6657 1.4363-1.4361 2.9629-2.0941 4.4352-1.316 2.9444-2.2021 5.7235-0.1832 7.2417 0.7948 0.59724 2.9051 0.96452 5.8759 0.92254 2.9707-0.0417 6.7971-0.51635 10.904-1.5528 4.2204-1.0452 8.7536-2.665 13.049-4.7032 4.2956-2.0381 8.344-4.4892 11.77-6.9022 0.899-0.63302 1.9268-1.3679 3.0697-2.2255 2.7653-2.0589 6.2115-4.8371 9.955-8.7531 3.7434-3.9161 7.7983-8.9781 11.415-15.667 2.3897-4.5012 4.463-9.6535 5.8786-15.445 1.4157-5.7914 2.1729-12.222 1.8451-19.167-0.4183-6.4938-1.6491-13.138-3.7751-19.694-2.1255-6.5551-5.1469-13.022-9.0478-19.081-4.3649-6.8466-9.5471-13.416-15.434-19.541-5.887-6.1244-12.482-11.802-19.541-16.913-7.7628-5.6544-16.319-10.703-25.57-14.945-9.2502-4.2414-19.194-7.6756-29.65-10.137-8.1202-1.9112-15.819-3.0922-23.076-3.7712-10.155-0.95855-19.414-1.0849-27.97-0.74832-8.5552 0.33602-16.409 1.1398-23.779 2.2233-14.739 2.1662-27.551 5.3864-40.088 9.2806-7.4938 2.3291-14.952 4.9125-22.643 7.8011 5.3619 2.7298 10.634 6.0682 15.481 9.8932 5.1592 4.071 9.842 8.6549 13.861 13.351 8.0274 9.3124 13.939 18.789 17.839 25.824 1.9502 3.5172 3.4116 6.4293 4.4029 8.4529 0.9909 2.0236 1.516 3.1606 1.516 3.1606-0.039 0.0971-0.66385-0.80197-1.9249-2.4786-1.261-1.6767-3.145-4.1332-5.6956-7.0938-2.5509-2.9604-5.7743-6.4254-9.7145-10.016-3.9398-3.5901-8.6-7.3066-13.949-10.644-4.7951-3.0086-10.216-5.671-15.965-7.4896-4.8181-1.5246-10.829-1.8803-16.547-0.97687-5.2332 0.8218-10.151 2.6804-14.178 4.6844-4.0272 2.0039-7.169 4.1117-9.6752 5.2735-0.4054 0.17386-0.79872 0.32978-1.1831 0.4562-2.2262 0.73394-4.5764 1.202-7.049 1.3594-2.4726 0.15749-5.0699-0.00078-7.6614-0.61454-2.5915-0.61372-5.1759-1.6842-7.4883-3.4162-0.92269-0.69099-1.8009-1.4924-2.6118-2.412-14.199 7.4677-30.039 16.536-47.933 28.137-10.173 6.5958-21.004 14.015-32.508 22.444-3.2822 2.405-6.6346 4.9173-10.026 7.4905 2.5926-1.0878 5.2013-2.1505 7.852-3.151 14.436-5.4483 29.719-9.5362 45.576-11.455 13.347-1.6337 27.153-1.6873 40.83 0.0975 13.676 1.7844 27.221 5.4095 39.954 11.099 13.567 5.939 26.257 14.226 37.814 24.218 11.558 9.9924 21.981 21.685 31.033 34.323 8.9049 12.275 14.224 27.607 17.773 43.55 3.84 17.681 5.0734 36.086 5.2009 54.505 0.10525 18.687-1.0989 37.293-2.818 55.613-1.4957 15.903-3.4845 31.67-5.2305 47.262-1.4037 12.172-2.1494 24.378-1.9467 36.39s1.3511 23.833 3.6233 35.277c2.4305 12.245 6.4475 24.116 12.288 34.878 6.2444 11.47 14.736 21.259 24.603 28.655 6.101 4.7459 13.175 8.1821 20.554 9.9915 7.378 1.8088 15.062 1.9922 22.562 0.41963 7.7452-2.059 14.296-5.8244 19.583-10.433 5.286-4.6081 9.3099-10.062 12.12-15.725 3.033-6.15 4.8798-12.253 5.9489-18.053 0.9647-5.4077 1.2311-10.552 0.9839-15.415-0.2471-4.8631-1.0118-9.4497-2.2102-13.756-1.4972-5.439-3.5762-10.474-6.2693-15.189-1.9703 5.3409-4.8902 8.3871-7.9125 9.9347-3.0221 1.5476-6.1702 1.6298-9.1281 0.92183-2.9571-0.70794-5.7466-2.204-8.2274-4.1762s-4.6629-4.433-6.3738-7.3208v-0.00078c-2.7661-4.9068-5.8507-10.04-7.1032-15.045-0.6264-2.5021-0.7902-4.9796-0.1871-7.3874 0.6026-2.4077 1.9666-4.7507 4.4528-6.91 4.9729-4.3188 10.914-6.2065 17.107-5.1498 3.097 0.52824 6.2401 1.7924 9.2304 3.8289 2.9906 2.0365 5.828 4.8466 8.2537 8.3881 2.6803 3.9135 4.7553 7.4481 6.4512 10.675 1.6952 3.2268 3.0116 6.1492 4.113 8.9275 1.1015 2.7784 1.989 5.413 2.7663 8.1136 0.7771 2.7008 1.4464 5.468 2.0492 8.5494 0.7628 3.7851 1.3724 8.059 1.591 13.307 0.2187 5.2478 0.079 11.484-1.3114 19.127-1.2552 6.8979-3.4338 13.788-6.6483 20.479-6.9741 14.372-20.079 25.845-37.275 30.592-19.298 3.725-37.265-1.6-50.171-11.95-11.321-8.5758-20.363-19.422-26.826-31.457-6.4475-12.07-10.564-24.744-12.953-37.261-4.8068-25.191-4.2996-50.296-1.3589-74.122 1.8894-15.985 3.9628-31.659 5.5081-47.099 1.8415-18.477 3.1107-36.788 3.1002-54.878 0-3.1884-0.0624-6.3581-0.14423-9.5188-1.1016 2.6471-2.5209 5.3906-4.3039 8.1829-4.9475 6.9006-12.069 11.308-20.111 13.234-5.3545 0.81977-9.8775 0.85353-13.607 0.46259-3.7293-0.39079-6.6693-1.2052-8.9497-2.1604-4.576-1.6459-7.8649-3.1728-9.8658-4.1323-4.1683-1.9986-8.0282-4.9731-11.006-8.4362-2.9782-3.4632-5.082-7.4024-6.2015-11.377-1.1199-3.9745-1.2813-7.9822-0.53872-11.725 0.7426-3.7429 2.3775-7.2277 5.0079-10.232 2.6305-3.0048 5.5915-4.8579 8.662-5.8378 3.0706-0.97991 6.2409-1.0847 9.2008-0.61828 2.9598 0.46657 5.696 1.4957 8.011 2.8073 2.3155 1.3114 4.2127 2.897 5.7349 4.6435 1.5811 1.8139 2.8269 4.656 4.6676 7.8102 0.61201 1.112 1.0276 2.4584 1.4345 3.7885 0.40736 1.3301 0.81276 2.6395 1.4486 3.6274 0.56289 1.9783 3.0273 3.1186 5.5798 2.7566 1.7674-0.31848 3.4892-1.2853 5.0122-2.5689 1.523-1.2837 2.8449-2.8782 3.8732-4.4967 0.41671-0.65032 0.79015-1.31 1.1242-1.972 2.2087-4.3809 3.6194-9.1495 4.5534-13.652 1.3889-6.5957 1.905-12.975 1.9791-18.694 0.0468-3.5491-0.0897-6.809-0.29626-9.7939-3.0834-9.7673-7.0782-18.792-12.582-26.331-17.399-24.33-39.875-45.031-66.09-56.365-23.66-10.569-50.92-13.728-77.232-10.319-28.873 3.674-57.051 15.306-82.771 31.189-4.7218 2.9282-9.3438 6.0272-13.887 9.2511 0.26117-0.0117 0.5204-0.0452 0.78391-0.0507 32.394-0.68771 59.187 22.228 92.521 22.831-3.4206 5.5094-9.3972 8.5134-14.695 11.886-25.817 11.564-55.743 14.849-82.913 7.4198-12.118-3.3152-24.792-8.1762-37.381-6.3264l-38.013 40.004s-10.36 9.2755-15.206 13.578c-9.6927 8.6045-18.396 16.439-26.008 23.775-3.9356 3.7751-7.5967 7.5219-10.889 11.266-3.2928 3.7447-6.2191 7.4864-8.7692 11.221-3.0659 4.501-5.464 9.0035-7.3059 13.352-1.8423 4.348-3.1306 8.5433-4.0046 12.514-1.6119 6.967-1.7487 13.348-1.1184 18.765 0.63033 5.4174 2.0091 9.9172 3.5808 13.649 1.8614 4.0305 3.8046 6.908 5.5432 9.1819 1.739 2.274 3.297 3.9381 4.7506 5.3306 1.4536 1.3923 2.8129 2.5077 4.3012 3.5458 1.4887 1.0382 3.1068 2.0014 5.1373 2.956 0.0507 0.0234 0.10525 0.0487 0.15982 0.0737 3.3212 1.5587 7.1652 3.1838 10.657 3.9273 3.4923 0.74338 6.5769 0.6329 8.2535-0.82741 0.84667-0.73769 0.70634-2.1543 0.33913-3.6594-0.36642-1.5051-0.94919-3.1086-1.1714-4.2172-0.21829-1.0916-0.23778-2.6372 0.0507-4.3023 0.28846-1.665 0.87981-3.448 1.799-5.0542 0.91957-1.606 2.1529-3.037 3.7597-4.0435 1.6072-1.0062 3.5777-1.5855 6.198-1.5204 1.783 0.0117 3.8381 0.29665 6.306 0.84769 2.3942 0.53482 4.608 1.272 6.6042 2.2395 1.9966 0.96744 3.78 2.1636 5.236 3.644 1.4556 1.4807 2.5868 3.2483 3.1586 5.3557 0.57225 2.1074 0.58394 4.5619-0.33523 7.337-1.1129 3.3541-3.803 7.3081-7.8536 10.337-2.0251 1.5145-4.3745 2.7903-6.9141 3.6495-2.5392 0.85919-5.2672 1.2965-7.9849 1.1648-0.61396-0.0312-1.2135-0.0651-1.7998-0.10681-5.5521-0.32861-10.093-1.1912-14.686-2.5055-2.2964-0.65715-4.6099-1.4406-7.0798-2.4264s-5.098-2.1699-8.004-3.7194c-3.4728-1.8252-7.2646-4.2498-11.272-7.8277-4.822-4.3113-9.0304-9.6008-12.297-15.794-5.9267-12.842-6.8092-26.104-4.2973-37.685 0.77885-3.9718 1.8516-7.8235 3.1731-11.539-31.152 24.221-64.808 46.128-100.86 63.756 0.65138 1.0771 1.1956 2.23 1.6142 3.4633 1.1823 3.4823 1.2209 6.7014 0.5777 9.5808-0.6428 2.8794-1.9709 5.4272-3.6892 7.635s-3.8291 4.0783-6.1466 5.6072c-2.3174 1.5289-4.8454 2.7186-7.4747 3.5362-1.6388 0.50948-3.6221 0.79194-5.8819 1.0043-4.3168 0.47312-9.6908 0.51931-15.306 1.3391-2.8078 0.40985-5.6683 1.0144-8.4344 1.9082-2.7661 0.894-5.4383 2.0782-7.8466 3.5576-2.1904 1.3413-4.1515 2.9674-5.7096 4.7487-2.7302 3.1214-4.96 6.7476-6.5259 10.662-1.5655 3.914-2.466 8.1131-2.6796 12.376-0.13644 6.3754 1.0716 12.294 2.7513 17.327 1.6801 5.0334 3.8287 9.1955 5.8082 12.442 1.9795 3.2461 3.7933 5.5909 5.0399 7.1358 1.2466 1.5448 1.9319 2.3047 1.8329 2.2977 0 0-0.91917-0.70673-2.5264-2.1131s-3.9063-3.5258-6.5294-6.4977c-2.6227-2.9718-5.5681-6.8048-8.3018-11.632-2.7334-4.8268-5.2442-10.654-6.9157-17.481-1.2486-6.8562-1.2766-13.965-0.078-20.764 1.1905-6.7563 3.589-13.188 6.8467-18.829-6.4035 1.902-12.865 3.6713-19.394 5.2675-22.747 5.5627-46.686 8.7818-71.125 8.4095-50.61 4.6874-101.13 11.905-147.78 30.586-4.7939 1.9248-9.5255 3.968-14.099 6.2315 2.4168 0.15125 4.7912 0.61719 6.941 1.4487 3.2191 1.245 5.9259 3.2255 7.769 5.7055 1.843 2.4801 2.8129 5.4449 2.9684 8.6952 0.15592 3.287-0.42295 6.0708-1.2201 8.4079-0.79716 2.3371-1.8251 4.2361-2.9489 5.777-2.248 3.0819-4.9389 4.7652-8.3404 5.178-0.61863 0.0748-1.33 0.0635-2.1323 0.001-2.7634-0.16645-6.6327-0.92378-11.098-1.0949-2.2328-0.0854-4.6002-0.0312-6.9699 0.25416-2.3693 0.28378-4.739 0.7965-6.9418 1.5547-2.4363 0.83903-4.6746 1.9904-6.4549 3.3702-2.6414 2.0469-5.0013 4.4685-6.9773 7.1452-1.9764 2.6768-3.5691 5.6076-4.7592 8.6439-1.5971 4.2856-2.3077 8.609-2.448 12.513-0.14033 3.9044 0.28066 7.3938 0.86811 10.236 0.58589 2.8428 1.3265 5.0472 1.868 6.5264 0.54145 1.4792 0.87591 2.2417 0.79795 2.2136 0 0-0.5321-0.767-1.3932-2.2187-0.8611-1.4516-2.045-3.5965-3.2226-6.396-1.1776-2.7994-2.3439-6.2588-3.1302-10.274-0.78625-4.015-1.1858-8.5867-0.88916-13.5 0.444-5.3186 1.636-10.719 3.5118-15.795 1.8758-5.0765 4.4283-9.8216 7.3499-13.94 4.1281-5.933 8.8558-10.744 13.048-14.255 1.7853-1.495 3.4292-2.7145 4.9237-3.7647 0.52664-0.41153 1.0443-0.83736 1.5799-1.2321 9.0647-6.6795 19.299-11.575 29.639-15.835 37.28-15.375 76.968-23.559 117.05-28.912-25.509-4.0965-50.771-13.607-73.103-29.358-13.544-9.4557-26.79-21.69-37.709-37.444-8.1284-11.606-13.95-25.971-15.856-42.341-0.13644-1.4809-0.22609-2.9604-0.28067-4.4385-1.431-3.2119-3.0737-6.4904-5.0278-9.752-2.3514-3.9522-5.2371-8.002-8.7525-11.423-0.5321-0.5176-1.102-1.0176-1.7066-1.4972-1.5004-1.1944-3.2705-2.2712-5.1276-2.9885-1.859-0.71663-3.803-1.0702-5.5763-0.79584-2.5326 0.49003-4.4871 2.3724-4.3741 4.4263-0.28067 1.1407-0.23779 2.5127-0.19101 3.9026 0.05068 1.3907 0.09745 2.7968-0.12084 4.0478-0.71219 3.582-0.96401 6.6782-1.8684 8.9077-0.87006 2.1479-2.1463 4.2644-3.9083 6.2597-1.7616 1.9939-4.0108 3.8584-6.6572 5.2632-2.6461 1.4068-5.6772 2.3389-8.8987 2.4145-3.223 0.0748-6.6284-0.70864-10.094-2.6902-3.4666-1.9836-6.147-4.7454-8.0683-8.0413-1.9226-3.2966-3.0764-7.138-3.3138-11.261-0.23779-4.1226 0.46894-8.5335 2.1541-12.779 1.6863-4.245 4.364-8.314 7.6528-11.563 1.578-1.5596 4.1913-4.0771 7.9795-7.1242 1.8458-1.6475 4.3585-3.3747 7.7573-4.9609 3.398-1.5847 7.6828-3.0272 13.012-3.9976 8.2301-0.80052 16.401 1.0437 23.327 5.9546 6.5317 5.1781 10.882 10.816 13.013 15.953 0.84394 1.7775 1.5947 3.5414 2.2679 5.2859 1.001-3.2347 2.2102-6.4141 3.6264-9.5187 1.4825-3.1669 3.1294-6.206 4.9249-9.1099 2.8261-4.5673 5.8265-8.5186 8.8819-11.985 3.0554-3.4662 6.1664-6.4459 9.262-9.0481 5.5634-4.7379 11.035-8.3485 16.369-11.246 5.3346-2.8978 10.54-5.0802 15.754-6.7684 5.731-1.9023 11.537-3.153 17.689-3.7592s12.66-0.57607 19.826 0.42876c4.5592 0.67024 9.2721 1.7967 14.129 3.5416 3.9094 1.4044 7.7776 3.3984 11.365 5.8957 3.5878 2.4973 6.8923 5.4948 9.7305 8.81 3.8354 4.7258 6.5715 9.7565 8.2258 14.582 1.6548 4.826 2.2438 9.4398 2.029 13.467-0.2144 4.0273-1.2186 7.4662-2.7104 10.121-1.4922 2.6545-3.4666 4.5299-5.7361 5.5973-2.5778 1.2127-5.595 2.2248-8.8051 2.878-3.2105 0.65301-6.6144 0.95071-9.9496 0.8754-3.3352-0.0756-6.596-0.52453-9.5169-1.2203-1.4602-0.34771-2.8343-0.75799-4.1121-1.1848-1.2782-0.42676-2.4558-0.87193-3.5781-1.2611-0.18322-0.0881-0.37033-0.18048-0.55978-0.27833l-0.00078 0.001c-1.5058-0.77557-2.9474-1.4664-4.2727-2.2196-1.3254-0.753-2.5412-1.5592-3.681-2.4499-1.9686-1.4989-3.9492-3.1063-5.7302-4.937-1.7811-1.8306-3.3633-3.8707-4.5784-6.0429-1.215-2.1723-2.0594-4.4767-2.4297-6.7403-0.37032-2.2634-0.26118-4.4847 0.30405-6.4045 0.31965-1.0934 0.88488-2.4385 1.5507-3.8747 0.6658-1.4364 1.4337-2.9607 2.0921-4.4329 1.316-2.9444 2.204-5.7258 0.18321-7.2439-0.79522-0.59723-2.9053-0.96452-5.876-0.92253-2.9708 0.0417-6.7972 0.51638-10.904 1.5528-4.2205 1.0452-8.7536 2.665-13.049 4.7031-4.2954 2.0382-8.3459 4.4915-11.772 6.9045-0.89891 0.63309-1.9268 1.3678-3.0698 2.2255-2.7649 2.059-6.2113 4.8371-9.9547 8.7532s-7.7963 8.9759-11.413 15.664c-2.3896 4.5012-4.4649 9.6514-5.8807 15.443-1.4154 5.7914-2.1728 12.226-1.845 19.171 0.41827 6.4938 1.6493 13.138 3.7753 19.694 2.1253 6.5551 5.1486 13.02 9.0495 19.079 4.3651 6.8465 9.5473 13.416 15.434 19.541 5.8874 6.1244 12.48 11.804 19.539 16.915 7.7631 5.6544 16.319 10.699 25.569 14.94 9.2503 4.2414 19.196 7.6777 29.652 10.139 8.1202 1.9112 15.819 3.0922 23.076 3.7712 10.155 0.95855 19.412 1.0871 27.968 0.75055 8.5552-0.33602 16.411-1.142 23.78-2.2256 14.739-2.1662 27.55-5.3843 40.086-9.2784 7.4942-2.3292 14.955-4.9147 22.645-7.8033-5.3623-2.7299-10.636-6.0658-15.483-9.891-5.1588-4.071-9.8397-8.6571-13.858-13.353-8.0274-9.3124-13.942-18.791-17.842-25.826-1.9502-3.5172-3.4116-6.4251-4.4029-8.4487-0.99091-2.0236-1.5136-3.1628-1.5136-3.1628 0-0.0971 0.66347 0.80197 1.9245 2.4786 1.261 1.6767 3.1431 4.1354 5.6936 7.096 2.5509 2.9604 5.7743 6.4254 9.7145 10.016 3.9398 3.5901 8.6024 7.3044 13.951 10.642 4.7955 3.0085 10.217 5.671 15.966 7.4896 4.8181 1.5246 10.828 1.8803 16.547 0.97691 5.2332-0.82184 10.151-2.6805 14.178-4.6845 4.0268-2.0039 7.1667-4.1137 9.6728-5.2756 0.40501-0.17386 0.79872-0.3255 1.1831-0.45195 2.2262-0.73391 4.5787-1.2041 7.0513-1.3615 2.4726-0.15749 5.0695 0.00078 7.6614 0.6145 2.5915 0.61376 5.1759 1.6842 7.4883 3.4162 0.92269 0.69095 1.7986 1.4947 2.6098 2.4139 14.199-7.4677 30.041-16.538 47.935-28.14 10.173-6.5958 21.003-14.015 32.508-22.444 3.2826-2.4051 6.6346-4.9174 10.026-7.4905-2.5926 1.0878-5.2013 2.1505-7.852 3.1511-14.436 5.4483-29.719 9.5362-45.576 11.455-13.347 1.6338-27.153 1.6874-40.83-0.0974-13.676-1.7844-27.221-5.4095-39.954-11.099-13.567-5.939-26.257-14.226-37.814-24.218-11.558-9.9924-21.981-21.685-31.033-34.323-8.9057-12.275-14.225-27.607-17.774-43.55-3.84-17.681-5.0734-36.086-5.2009-54.505-0.10525-18.687 1.0989-37.292 2.818-55.613 1.4957-15.903 3.4845-31.67 5.2309-47.262 1.4033-12.172 2.149-24.378 1.9463-36.39s-1.353-23.831-3.6253-35.274c-2.4305-12.245-6.4475-24.116-12.288-34.878-6.2448-11.47-14.736-21.263-24.603-28.659-6.101-4.7459-13.173-8.1801-20.552-9.9895-7.378-1.8089-15.062-1.9923-22.562-0.41971-7.7452 2.0591-14.298 5.8267-19.585 10.435-5.2862 4.6081-9.308 10.06-12.118 15.723-3.0328 6.1499-4.8797 12.253-5.9486 18.053-0.96479 5.4077-1.2314 10.551-0.98428 15.415 0.24558 4.8631 1.012 9.4498 2.2102 13.756 1.4973 5.4389 3.5765 10.474 6.2694 15.189 1.9705-5.3409 4.8902-8.3871 7.9124-9.9347 3.0222-1.5475 6.1704-1.6298 9.1282-0.92187 2.9571 0.70801 5.7447 2.2062 8.2254 4.1784 2.48 1.9716 4.6633 4.4341 6.3734 7.3209 2.7661 4.9061 5.8492 10.039 7.1012 15.043 0.62642 2.5021 0.79015 4.9796 0.18711 7.3873-0.60266 2.4077-1.9709 4.7509-4.4571 6.9102-4.9728 4.3187-10.911 6.2086-17.105 5.1518-3.0967-0.5282-6.2378-1.7946-9.228-3.8312-2.9906-2.0365-5.8281-4.8466-8.2539-8.3881-2.6804-3.9134-4.7573-7.4459-6.453-10.672-1.6953-3.2268-3.0117-6.1492-4.1133-8.9275-1.1012-2.7784-1.9869-5.4152-2.7642-8.1158-0.77728-2.7009-1.4462-5.468-2.0492-8.5495-0.76248-3.785-1.3722-8.059-1.5908-13.307-0.2183-5.2478-0.078-11.484 1.3113-19.127 1.2548-6.8979 3.4311-13.786 6.6455-20.476 6.9742-14.372 20.081-25.847 37.277-30.594 19.298-3.725 37.265 1.6 50.171 11.95 11.32 8.5758 20.363 19.422 26.826 31.457 6.4471 12.07 10.564 24.744 12.952 37.261 4.8068 25.191 4.3 50.296 1.3593 74.122-1.8894 15.985-3.9632 31.659-5.5084 47.099-1.8415 18.477-3.1107 36.788-3.1002 54.878 0 3.1884 0.0624 6.3581 0.14423 9.5188 1.1016-2.6471 2.5209-5.3906 4.3039-8.1829 4.9475-6.9006 12.069-11.308 20.111-13.234 5.3545-0.81981 9.8775-0.85353 13.607-0.46259 3.7297 0.39079 6.6693 1.2052 8.9501 2.1604 4.576 1.6459 7.8649 3.1728 9.8658 4.1323 4.1683 1.9986 8.0278 4.9731 11.006 8.4362 2.9782 3.4632 5.0816 7.4024 6.2015 11.377 1.1195 3.9745 1.2794 7.9844 0.53677 11.727-0.74298 3.7428-2.3759 7.2255-5.006 10.23-2.6308 3.0048-5.5919 4.8578-8.6624 5.8378-3.0706 0.97987-6.2405 1.0847-9.2004 0.6182-2.9598-0.46657-5.6959-1.4957-8.0114-2.8072-2.3151-1.3114-4.2123-2.897-5.7349-4.6436-1.5811-1.8138-2.8308-4.6558-4.6715-7.81-0.61201-1.112-1.0233-2.4585-1.4306-3.7886-0.40735-1.3301-0.81471-2.6373-1.4505-3.6252-0.5625-1.9783-3.025-3.1208-5.5778-2.7589-1.7674 0.31848-3.4892 1.2853-5.0122 2.569s-2.8449 2.8781-3.8728 4.4967c-0.41671 0.65032-0.79482 1.3102-1.1285 1.9721-2.2087 4.3809-3.6151 9.1494-4.5491 13.652-1.3893 6.5956-1.9054 12.975-1.9795 18.694-0.0468 3.5491 0.0858 6.8091 0.29625 9.7939 3.0838 9.7673 7.0786 18.792 12.583 26.331 17.399 24.33 39.875 45.03 66.09 56.365 23.659 10.569 50.92 13.728 77.232 10.32 28.873-3.674 57.051-15.306 82.771-31.189 4.7214-2.9282 9.3438-6.0272 13.887-9.2511-0.26118 0.0117-0.52041 0.0452-0.78392 0.0507-32.394 0.68763-59.187-22.228-92.521-22.831 3.4206-5.5094 9.3929-8.5133 14.69-11.886 25.817-11.564 55.748-14.849 82.918-7.42 12.118 3.3152 24.792 8.1764 37.381 6.3264l38.013-40.004s10.36-9.2755 15.206-13.578c9.6927-8.6045 18.396-16.439 26.008-23.775 3.9356-3.7751 7.5943-7.5196 10.887-11.264 3.2924-3.7447 6.221-7.4886 8.7712-11.223 3.0659-4.5011 5.464-9.0035 7.3059-13.352 1.8419-4.3479 3.1282-8.5454 4.0022-12.516 1.6119-6.967 1.751-13.346 1.1207-18.763-0.63072-5.4175-2.0091-9.9172-3.5808-13.649-1.8614-4.0305-3.8069-6.9057-5.5455-9.1798-1.7386-2.274-3.2947-3.9403-4.7487-5.3327-1.4536-1.3923-2.8129-2.5077-4.3012-3.5458-1.4883-1.0382-3.1088-2.0034-5.1393-2.9581-0.0507-0.0234-0.10525-0.0472-0.15592-0.0717-3.3212-1.5587-7.1652-3.1838-10.657-3.9272-3.4923-0.74341-6.5773-0.63294-8.2535 0.82734-0.84668 0.73768-0.70868 2.1565-0.34304 3.6616 0.36642 1.5051 0.95114 3.1064 1.1733 4.215 0.21829 1.0916 0.23778 2.6372-0.0507 4.3022-0.28846 1.6651-0.88176 3.446-1.8009 5.0522-0.91957 1.606-2.151 3.0391-3.7578 4.0456-1.6072 1.0062-3.5797 1.5877-6.2 1.5226-1.783-0.0117-3.8362-0.2986-6.3037-0.84991l-0.001 0.001c-2.3942-0.53479-4.6056-1.2742-6.6023-2.2417-1.9966-0.96748-3.78-2.1637-5.236-3.644-1.4556-1.4807-2.5868-3.2483-3.1586-5.3557-0.57186-2.1074-0.58394-4.5619 0.33524-7.337 1.1129-3.3541 3.8007-7.306 7.8516-10.335 2.0251-1.5145 4.3745-2.7946 6.9137-3.6538 2.5396-0.85919 5.2695-1.2944 7.9873-1.1628 0.61396 0.0312 1.2135 0.0651 1.7998 0.10681 5.5521 0.32861 10.093 1.1912 14.686 2.5055 2.2964 0.65715 4.6099 1.4406 7.0798 2.4264s5.098 2.1699 8.004 3.7194c3.4728 1.8251 7.2626 4.252 11.27 7.8299 4.822 4.3113 9.0304 9.6009 12.297 15.794 5.9267 12.842 6.8112 26.102 4.2992 37.683-0.77846 3.9718-1.8516 7.8235-3.1731 11.539 31.152-24.221 64.808-46.128 100.86-63.756-0.65138-1.077-1.1952-2.23-1.6142-3.4633-1.1819-3.4823-1.2228-6.6991-0.58004-9.5786 0.64319-2.8794 1.9732-5.4294 3.6915-7.6372s3.8268-4.0761 6.1446-5.6051c2.3174-1.5288 4.8454-2.7186 7.4747-3.5361 1.6384-0.50953 3.6198-0.79409 5.8796-1.0064 4.3168-0.47311 9.695-0.5195 15.311-1.3393 2.8078-0.40981 5.6683-1.0143 8.4344-1.9082 2.7661-0.89396 5.436-2.0802 7.8442-3.5596 2.1908-1.3413 4.1496-2.9652 5.7076-4.7465 2.7302-3.1214 4.9623-6.7456 6.5278-10.66 1.5659-3.914 2.466-8.1175 2.6796-12.38 0.13643-6.3754-1.0712-12.29-2.7509-17.323-1.6801-5.0333-3.8268-9.1977-5.8063-12.444-1.9799-3.2461-3.7933-5.591-5.0399-7.1358-1.2466-1.5449-1.9319-2.3046-1.8329-2.2976 0 0 0.91918 0.70669 2.5264 2.1131s3.9063 3.5258 6.5294 6.4977c2.6227 2.9719 5.5681 6.8048 8.3015 11.632 2.7334 4.8268 5.2442 10.654 6.9161 17.481 1.2482 6.8562 1.2747 13.968 0.078 20.766-1.1905 6.7563-3.5871 13.186-6.8447 18.826 6.4035-1.902 12.863-3.6691 19.392-5.2653 22.751-5.5636 46.696-8.7857 71.14-8.412 50.605-4.6875 101.12-11.907 147.76-30.586 4.796-1.9255 9.528-3.9671 14.103-6.2317-2.4182-0.15086-4.7942-0.61653-6.9452-1.4485-3.2189-1.245-5.9281-3.2233-7.7711-5.7033-1.8431-2.4801-2.8106-5.4472-2.9662-8.6975-0.1571-3.287 0.4227-6.0708 1.2201-8.4079 0.7973-2.3371 1.8249-4.2361 2.9489-5.777 2.248-3.0819 4.9389-4.7653 8.3405-5.1781 0.6184-0.0748 1.3299-0.0635 2.132-0.001 2.7637 0.16645 6.6328 0.92378 11.099 1.0949 2.233 0.0854 4.6002 0.0312 6.9697-0.25416 2.3695-0.28378 4.7392-0.79646 6.9417-1.5546 2.4365-0.83899 4.6748-1.9904 6.4552-3.3702 2.6413-2.0469 5.0013-4.4684 6.9773-7.1452s3.5689-5.6077 4.759-8.6439c1.597-4.2856 2.3076-8.609 2.448-12.513 0.1404-3.9044-0.2822-7.3938-0.8682-10.236-0.5859-2.8427-1.3264-5.0472-1.8678-6.5264-0.5415-1.4792-0.8758-2.2416-0.7981-2.2136zm-474.4 251.14c-0.29626 0.4019-0.59135 0.80777-0.89151 1.204 0.421-0.2491 0.85019-0.49226 1.2739-0.73987zm-155.26 141.68c-0.42216 0.24948-0.85174 0.49401-1.2758 0.74204l0.38201 0.46404c0.29626-0.40252 0.59291-0.80949 0.89384-1.2062z" fill-rule="evenodd" stroke-width="7"/>
</svg>
