<?xml version="1.0" encoding="utf-8"?>

<!DOCTYPE svg PUBLIC "-//W3C//DTD SVG 1.1//EN" "http://www.w3.org/Graphics/SVG/1.1/DTD/svg11.dtd">
<svg version="1.1" id="Layer_1" xmlns="http://www.w3.org/2000/svg" xmlns:xlink="http://www.w3.org/1999/xlink" x="0px" y="0px"
	 viewBox="0 0 2663.905 882.45" enable-background="new 0 0 2663.905 882.45" xml:space="preserve">
<g id="Layer_x0020_1">
	<g id="_635827488">
		<path d="M2245.888,114.024c-42.846,27.304-86.583,67.141-129.482,110.396c8.167,1.54,15.943,3.532,23.923,6.019
			c63.029-63.177,130.571-118.955,218.899-144.827c213.396-62.327,264.527,121.243,211.029,183.658
			c-29.297,34.145-121.299,64.434-161.197-8.816c-12.199-22.459-17.12-51.119-8.612-74.626c4.906-13.327,2.904-10.47,15.563-11.37
			c14.8-0.628,29.624-3.293,38.025-15.171c21.635-30.971-36.556-47.702-67.168,4.943c-44.533,76.367,33.622,210.516,163.522,146.573
			c95.72-47.178,71.809-186.709-16.752-236.907C2448.183,25.597,2327.335,61.752,2245.888,114.024z"/>
		<path d="M418.017,114.024c42.846,27.304,86.583,67.141,129.482,110.396c-8.167,1.54-15.943,3.532-23.923,6.019
			c-63.029-63.177-130.571-118.955-218.899-144.827C91.281,23.284,40.15,206.855,93.648,269.269
			c29.297,34.145,121.299,64.434,161.197-8.816c12.199-22.459,17.12-51.119,8.612-74.626c-4.906-13.327-2.904-10.47-15.563-11.37
			c-14.8-0.628-29.624-3.293-38.025-15.171c-21.634-30.971,36.556-47.702,67.168,4.943
			c44.533,76.367-33.622,210.516-163.522,146.573c-95.721-47.178-71.809-186.709,16.752-236.907
			C215.721,25.597,336.57,61.752,418.017,114.024z"/>
		<path d="M2252.323,303.654l115.687-47.919c-2.065-6.384-3.884-12.871-5.105-19.316l-122.855,50.888
			C2244.341,292.771,2248.529,297.986,2252.323,303.654z"/>
		<path d="M411.581,303.654l-115.687-47.919c2.065-6.384,3.883-12.871,5.105-19.316l122.855,50.888
			C419.564,292.771,415.376,297.986,411.581,303.654z"/>
		<path d="M2413.741,236.793l156.472-64.813c-2.065-6.385-4.625-12.564-7.577-18.292l-152.518,63.175
			C2410.599,223.615,2411.922,230.307,2413.741,236.793z"/>
		<path d="M250.164,236.793L93.692,171.98c2.065-6.385,4.624-12.564,7.577-18.292l152.518,63.175
			C253.306,223.615,251.982,230.307,250.164,236.793z"/>
		<path d="M2105.491,266.589c-9.362-1.625-18.517-2.755-27.367-3.144c-35.127,36.849-69.453,74.236-101.215,105.927l-125.729,116.66
			c-23.301,20.656-71.991,57.622-64.866,75.522c8.148,20.372,43.928-3.716,38.075-19.246l-0.922-2.225l100.419-89.669
			c53.904-49.55,105.427-102.749,156.295-156.833C2088.617,284.583,2097.055,275.586,2105.491,266.589z"/>
		<path d="M558.414,266.589c9.361-1.625,18.517-2.755,27.367-3.144c35.127,36.849,69.453,74.236,101.215,105.927l125.729,116.66
			c23.301,20.656,71.991,57.622,64.866,75.522c-8.148,20.372-43.928-3.716-38.075-19.246l0.922-2.225l-100.419-89.669
			c-53.904-49.55-105.427-102.749-156.295-156.833C575.287,284.583,566.85,275.586,558.414,266.589z"/>
		<path d="M1888.544,432.907l-128.788,53.346l-6.911,7.786c-7.695,8.69-15.143,17.277-22.838,25.967l116.923-48.431
			L1888.544,432.907z"/>
		<path d="M775.361,432.907l128.788,53.346l6.911,7.786c7.695,8.69,15.143,17.277,22.838,25.967l-116.923-48.431L775.361,432.907z"
			/>
		<path d="M1331.952,684.885l212.413-87.985c1.346-3.743,2.342-7.631,3.338-11.519c1.243-3.99,2.137-8.125,2.929-12.507
			l-218.68,90.58l-218.68-90.58c0.792,4.382,1.686,8.517,2.929,12.507c0.997,3.888,1.992,7.776,3.338,11.519L1331.952,684.885z"/>
		<path d="M2186.162,309.629l-170.315,70.547c-12.272,12.323-24.544,24.646-36.918,36.722l221.978-91.946
			C2196.618,319.488,2191.587,314.333,2186.162,309.629z"/>
		<path d="M477.742,309.629l170.315,70.547c12.272,12.323,24.544,24.646,36.918,36.722l-221.978-91.946
			C467.286,319.488,472.318,314.333,477.742,309.629z"/>
		<path d="M1331.952,831.235c85.988-22.07,170.872-85.595,223.591-136.735c122.566-119.404,290.244-365.517,440.691-423.201
			c43.916-17.032,79.796-20.6,121.062-10.47c158.436,39.21,145.954,201.346,38.889,230.924c-22.776,6.538-46.315,3.546-67.238-0.82
			c-5.285-21.848-11.388-45.674-29.906-48.429c-37.282-5.409-59.121,74.011,59.807,80.064
			c137.82,6.916,204.875-170.295,76.319-256.924c-125.35-84.481-297.353-13.814-399.376,74.781
			c-66.475,57.654-152.072,164.93-211.575,244.312c2.265-9.916,3.642-19.175,4.278-28.126c0.499-12.08,0.111-23.504-1.965-34.807
			c-1.786-12.003-5.013-23.988-10.072-35.504c-4.795-10.177-10.826-19.843-18.28-28.05c-8.503-8.641-18.676-15.722-30.459-20.398
			c-11.084-4.387-23.531-6.47-36.643-5.963c-12.864,0.405-26.537,3.752-38.999,8.624c-12.854,5.324-24.744,12.277-33.59,20.285
			c-7.96,7.352-13.575,15.47-17.11,23.015c-4.447,10.241-5.372,19.891-3.597,26.975c1.102,4.756,3.481,8.405,6.296,11.003
			c2.814,2.599,5.961,3.902,9.396,4.506c3.581,0.254,7.102-0.335,10.357-2.263c3.257-1.928,6.103-4.844,7.84-9.039
			c4.362-9.047,3.734-23.846,2.553-39.285c6.639-5.646,16.014-10.978,25.902-15.073c10.237-3.951,21.584-6.623,31.813-7.096
			c9.983-0.37,19.344,1.254,27.879,4.38c8.637,3.373,16.303,8.596,22.545,15.278c5.791,6.29,10.653,13.832,14.279,21.887
			c4.24,9.538,6.997,19.691,8.519,30.355c1.709,9.718,2.326,19.598,1.605,29.743c-0.619,10.392-2.721,21.399-5.751,33.659
			c-25.946,97.522-132.56,188.415-229.061,214.679c-96.501-26.263-203.115-117.156-229.061-214.679
			c-3.03-12.26-5.132-23.267-5.751-33.659c-0.721-10.145-0.104-20.026,1.605-29.743c1.521-10.664,4.279-20.817,8.519-30.355
			c3.626-8.055,8.488-15.598,14.279-21.887c6.243-6.681,13.908-11.904,22.545-15.278c8.535-3.126,17.896-4.75,27.88-4.38
			c10.229,0.472,21.576,3.145,31.813,7.096c9.888,4.096,19.263,9.427,25.902,15.073c-1.182,15.439-1.81,30.238,2.552,39.285
			c1.737,4.195,4.583,7.111,7.84,9.039c3.256,1.928,6.777,2.517,10.357,2.263c3.435-0.604,6.582-1.908,9.396-4.506
			c2.814-2.599,5.194-6.247,6.296-11.003c1.775-7.084,0.849-16.735-3.597-26.975c-3.535-7.546-9.15-15.664-17.11-23.015
			c-8.846-8.008-20.736-14.96-33.59-20.285c-12.462-4.872-26.135-8.219-38.999-8.624c-13.112-0.508-25.559,1.576-36.643,5.963
			c-11.783,4.676-21.957,11.757-30.459,20.398c-7.454,8.207-13.484,17.872-18.28,28.05c-5.059,11.516-8.286,23.501-10.072,35.504
			c-2.076,11.303-2.463,22.727-1.965,34.807c0.636,8.952,2.014,18.21,4.279,28.126c-59.503-79.382-145.1-186.659-211.575-244.312
			c-102.022-88.596-274.025-159.262-399.376-74.781c-128.556,86.629-61.501,263.839,76.319,256.924
			c118.928-6.053,97.089-85.472,59.807-80.064c-18.518,2.755-24.621,26.581-29.907,48.429c-20.922,4.366-44.461,7.358-67.237,0.82
			C400.655,462.176,388.172,300.04,546.608,260.83c41.266-10.13,77.146-6.562,121.062,10.47
			c150.447,57.684,318.125,303.796,440.691,423.201C1161.08,745.64,1245.965,809.165,1331.952,831.235z"/>
	</g>
</g>
</svg>
