<svg width="932" height="712" xmlns="http://www.w3.org/2000/svg">

 <g label="Warstwa 1" id="imagebot_40">
  <g transform="translate(-0.00000762939 -0.000427246) matrix(1 0 0 1 88.345 -234.078)" label="Warstwa 1" fill="#000000" id="imagebot_41">
   <g fill="#000000" transform="matrix(-1 0 0 1 755.44 -.88158)" id="imagebot_61">
    <path fill-rule="evenodd" stroke="#916641" stroke-width="1px" fill="#aa784c" d="M347.09,896.45C296.828,861.839 255.099,892.2295 216.89,926.597C266.221,939.999 318.46,946.078 347.09,896.45z" id="imagebot_78"/>
    <path fill-rule="evenodd" stroke="#916641" stroke-width="1px" fill="#aa784c" d="M335.01,866.66C332.7797,805.674 283.489,790.333 233.11,780.186C251.801,827.765 278.105,873.309 335.01,866.66z" id="imagebot_77"/>
    <path fill-rule="evenodd" stroke="#916641" stroke-width="1px" fill="#aa784c" d="M257.46,868.97C210.302,830.235 166.155,856.991 125.17,888.006C173.192,905.529 224.732,916.001 257.46,868.97z" id="imagebot_76"/>
    <path fill-rule="evenodd" stroke="#916641" stroke-width="1px" fill="#aa784c" d="M213.73,840.05C243.116,786.565 208.6867,748.1 170.654,713.53C162.2763,763.958 161.4764,816.55 213.73,840.05z" id="imagebot_75"/>
    <path fill-rule="evenodd" stroke="#916641" stroke-width="1px" fill="#aa784c" d="M175.56,838.86C140.87,788.66 91.067,802.25 43.14,820.81C84.496,850.857 131.174,875.092 175.56,838.866L175.56,838.86z" id="imagebot_74"/>
    <path fill-rule="evenodd" stroke="#916641" stroke-width="1px" fill="#aa784c" d="M126.56,794.08C171.454,752.743 151.072,705.314 126.03229,660.43C102.02629,705.561 84.51529,755.155 126.56,794.08z" id="imagebot_73"/>
    <path fill-rule="evenodd" stroke="#916641" stroke-width="1px" fill="#aa784c" d="M102.71,789.03C78.197,733.143 26.72,737.014 -23.86,746.117C11.026,783.481 52.242,816.152 102.71,789.03z" id="imagebot_72"/>
    <path fill-rule="evenodd" stroke="#916641" stroke-width="1px" fill="#aa784c" d="M61.808,735C113.59,702.7 102.36,652.32 86.078,603.57C54.118,643.47 27.712,688.95 61.808,735z" id="imagebot_71"/>
    <path fill-rule="evenodd" stroke="#916641" stroke-width="1px" fill="#aa784c" d="M43.732,727.44C30.23,667.926 -21.05,661.992 -72.438,661.365C-45.247,704.652 -10.953,744.528 43.732,727.44z" id="imagebot_70"/>
    <path fill-rule="evenodd" stroke="#916641" stroke-width="1px" fill="#aa784c" d="M28.354,639.98C83.493,613.83 78.104,562.49 67.512,512.2C31.194,548.17 -0.246,590.33 28.354,639.98z" id="imagebot_69"/>
    <path fill-rule="evenodd" stroke="#916641" stroke-width="1px" fill="#aa784c" d="M19.165,657C12.8258,596.303 -37.388,584.323 -88.345,577.597C-66.486,623.807 -37.17,667.472 19.165,657z" id="imagebot_68"/>
    <path fill-rule="evenodd" stroke="#916641" stroke-width="1px" fill="#aa784c" d="M5.1751,540.49C64.7641,527.32 70.9831,476.07 71.8961,424.68C28.4581,451.63 -11.6079,485.7 5.1751,540.49z" id="imagebot_67"/>
    <path fill-rule="evenodd" stroke="#916641" stroke-width="1px" fill="#aa784c" d="M-6.4859,585.25C10.7591,526.71 -31.1119,496.52 -75.6689,470.9C-73.0479,521.952 -62.5619,573.49 -6.4859,585.25z" id="imagebot_66"/>
    <path fill-rule="evenodd" stroke="#916641" stroke-width="1px" fill="#aa784c" d="M28.616,425.5C89.567,428.5522 109.113,380.773 123.579,331.456C74.562,345.963 26.914,368.229 28.616,425.5z" id="imagebot_65"/>
    <path fill-rule="evenodd" stroke="#916641" stroke-width="1px" fill="#aa784c" d="M-10.627,491.19C26.002,442.378 -2.6649,399.447 -35.448,359.87C-50.847,408.614 -59.048,460.56 -10.627,491.19z" id="imagebot_64"/>
    <path fill-rule="evenodd" stroke="#916641" stroke-width="1px" fill="#aa784c" d="M55.278,338.67C116.2,335.15 130.5,285.55 139.59,234.96C92.411,254.65 47.431,281.91 55.278,338.67z" id="imagebot_63"/>
    <path fill-rule="evenodd" stroke="#916641" stroke-width="1px" fill="#aa784c" d="M16.39,391.33C62.167,350.98 42.814,303.12 18.751,257.7C-6.225,302.31 -24.804,351.51 16.39,391.33z" id="imagebot_62"/>
   </g>
   <g fill="#000000" id="imagebot_43">
    <path fill-rule="evenodd" stroke="#916641" stroke-width="1px" fill="#aa784c" d="M347.09,896.45C296.828,861.839 255.099,892.2295 216.89,926.597C266.221,939.999 318.46,946.078 347.09,896.45z" id="imagebot_60"/>
    <path fill-rule="evenodd" stroke="#916641" stroke-width="1px" fill="#aa784c" d="M335.01,866.66C332.7797,805.674 283.489,790.333 233.11,780.186C251.801,827.765 278.105,873.309 335.01,866.66z" id="imagebot_59"/>
    <path fill-rule="evenodd" stroke="#916641" stroke-width="1px" fill="#aa784c" d="M257.46,868.97C210.302,830.235 166.155,856.991 125.17,888.006C173.192,905.529 224.732,916.001 257.46,868.97z" id="imagebot_58"/>
    <path fill-rule="evenodd" stroke="#916641" stroke-width="1px" fill="#aa784c" d="M213.73,840.05C243.116,786.565 208.6867,748.1 170.654,713.53C162.2763,763.958 161.4764,816.55 213.73,840.05z" id="imagebot_57"/>
    <path fill-rule="evenodd" stroke="#916641" stroke-width="1px" fill="#aa784c" d="M175.56,838.86C140.87,788.66 91.067,802.25 43.14,820.81C84.496,850.857 131.174,875.092 175.56,838.866L175.56,838.86z" id="imagebot_56"/>
    <path fill-rule="evenodd" stroke="#916641" stroke-width="1px" fill="#aa784c" d="M126.56,794.08C171.454,752.743 151.072,705.314 126.03229,660.43C102.02629,705.561 84.51529,755.155 126.56,794.08z" id="imagebot_55"/>
    <path fill-rule="evenodd" stroke="#916641" stroke-width="1px" fill="#aa784c" d="M102.71,789.03C78.197,733.143 26.72,737.014 -23.86,746.117C11.026,783.481 52.242,816.152 102.71,789.03z" id="imagebot_54"/>
    <path fill-rule="evenodd" stroke="#916641" stroke-width="1px" fill="#aa784c" d="M61.808,735C113.59,702.7 102.36,652.32 86.078,603.57C54.118,643.47 27.712,688.95 61.808,735z" id="imagebot_53"/>
    <path fill-rule="evenodd" stroke="#916641" stroke-width="1px" fill="#aa784c" d="M43.732,727.44C30.23,667.926 -21.05,661.992 -72.438,661.365C-45.247,704.652 -10.953,744.528 43.732,727.44z" id="imagebot_52"/>
    <path fill-rule="evenodd" stroke="#916641" stroke-width="1px" fill="#aa784c" d="M28.354,639.98C83.493,613.83 78.104,562.49 67.512,512.2C31.194,548.17 -0.246,590.33 28.354,639.98z" id="imagebot_51"/>
    <path fill-rule="evenodd" stroke="#916641" stroke-width="1px" fill="#aa784c" d="M19.165,657C12.8258,596.303 -37.388,584.323 -88.345,577.597C-66.486,623.807 -37.17,667.472 19.165,657z" id="imagebot_50"/>
    <path fill-rule="evenodd" stroke="#916641" stroke-width="1px" fill="#aa784c" d="M5.1751,540.49C64.7641,527.32 70.9831,476.07 71.8961,424.68C28.4581,451.63 -11.6079,485.7 5.1751,540.49z" id="imagebot_49"/>
    <path fill-rule="evenodd" stroke="#916641" stroke-width="1px" fill="#aa784c" d="M-6.4859,585.25C10.7591,526.71 -31.1119,496.52 -75.6689,470.9C-73.0479,521.952 -62.5619,573.49 -6.4859,585.25z" id="imagebot_48"/>
    <path fill-rule="evenodd" stroke="#916641" stroke-width="1px" fill="#aa784c" d="M28.616,425.5C89.567,428.5522 109.113,380.773 123.579,331.456C74.562,345.963 26.914,368.229 28.616,425.5z" id="imagebot_47"/>
    <path fill-rule="evenodd" stroke="#916641" stroke-width="1px" fill="#aa784c" d="M-10.627,491.19C26.002,442.378 -2.6649,399.447 -35.448,359.87C-50.847,408.614 -59.048,460.56 -10.627,491.19z" id="imagebot_46"/>
    <path fill-rule="evenodd" stroke="#916641" stroke-width="1px" fill="#aa784c" d="M55.278,338.67C116.2,335.15 130.5,285.55 139.59,234.96C92.411,254.65 47.431,281.91 55.278,338.67z" id="imagebot_45"/>
    <path fill-rule="evenodd" stroke="#916641" stroke-width="1px" fill="#aa784c" d="M16.39,391.33C62.167,350.98 42.814,303.12 18.751,257.7C-6.225,302.31 -24.804,351.51 16.39,391.33z" id="imagebot_44"/>
   </g>
   <path stroke="#916641" stroke-linecap="round" stroke-width="0.84947" fill="#aa784c" transform="matrix(1.3462 0 0 1.0294 -97.05 -48.372)" d="M365.68,905.89A13.132,17.173 0 1 1 339.416,905.89A13.132,17.173 0 1 1 365.68,905.89z" id="imagebot_42"/>
  </g>
  <title label="Warstwa 1"/>
 </g>
 <metadata>image/svg+xmlOpenclipartLaurel wreath2011-08-04T18:13:55Simplification of zeimusus Laurel wreath. 
\n
\nTaken from: http://commons.wikimedia.org/wiki/Image:SPQRomani.svg The SPQR removed from the middle, and the drop shadow blurredhttps://openclipart.org/detail/153649/-by-worker-153649workerexternalsourcelaurelromanvictorywreath</metadata>
</svg>