<?xml version="1.0" encoding="UTF-8" standalone="no"?>
<!-- Created with Inkscape (http://www.inkscape.org/) -->

<svg
   xmlns:dc="http://purl.org/dc/elements/1.1/"
   xmlns:cc="http://creativecommons.org/ns#"
   xmlns:rdf="http://www.w3.org/1999/02/22-rdf-syntax-ns#"
   xmlns:svg="http://www.w3.org/2000/svg"
   xmlns="http://www.w3.org/2000/svg"
   xmlns:sodipodi="http://sodipodi.sourceforge.net/DTD/sodipodi-0.dtd"
   xmlns:inkscape="http://www.inkscape.org/namespaces/inkscape"
   width="476.2995"
   height="341.13202"
   id="svg2"
   version="1.1"
   inkscape:version="0.48.5 r10040"
   sodipodi:docname="oficiall.svg">
  <defs
     id="defs4" />
  <sodipodi:namedview
     id="base"
     pagecolor="#ffffff"
     bordercolor="#666666"
     borderopacity="1.0"
     inkscape:pageopacity="0.0"
     inkscape:pageshadow="2"
     inkscape:zoom="0.35"
     inkscape:cx="-87.27882"
     inkscape:cy="183.71322"
     inkscape:document-units="px"
     inkscape:current-layer="layer1"
     showgrid="false"
     inkscape:window-width="1366"
     inkscape:window-height="664"
     inkscape:window-x="-8"
     inkscape:window-y="-8"
     inkscape:window-maximized="1"
     fit-margin-top="0"
     fit-margin-left="0"
     fit-margin-right="0"
     fit-margin-bottom="0" />
  <metadata
     id="metadata7">
    <rdf:RDF>
      <cc:Work
         rdf:about="">
        <dc:format>image/svg+xml</dc:format>
        <dc:type
           rdf:resource="http://purl.org/dc/dcmitype/StillImage" />
        <dc:title></dc:title>
      </cc:Work>
    </rdf:RDF>
  </metadata>
  <g
     inkscape:label="Layer 1"
     inkscape:groupmode="layer"
     id="layer1"
     transform="translate(-462.27882,-399.22909)">
    <path
       style="fill:#030303"
       d="m 560.91922,732.13473 c -1.30905,-5.21578 -0.6808,-8.38474 1.66236,-8.38474 6.50576,0 17.05816,-21.25002 17.07124,-34.37744 0.007,-6.91741 -1.41991,-12.57711 -3.17068,-12.57711 -4.82431,0 -19.46735,20.58031 -22.07347,31.02354 -2.93734,11.7705 -5.42445,11.61283 -12.76221,-0.80899 L 535.7203,696.97778 549.30807,684.052 c 10.3402,-9.83638 13.58781,-15.4829 13.58781,-23.62475 0,-9.15888 -0.84488,-10.24353 -5.86932,-7.53506 -7.03953,3.79476 -18.73433,16.40739 -23.47429,25.31662 -3.17775,5.97288 -3.82452,5.67841 -8.84278,-4.02582 -6.399,-12.37433 -6.61808,-14.15703 -1.73964,-14.15703 8.49237,0 23.1223,-14.43349 26.3018,-25.94866 1.8594,-6.73419 2.66473,-12.95999 1.78964,-13.83509 -3.30168,-3.30164 -19.48004,8.26293 -26.96104,19.27226 -7.6546,11.2647 -7.80881,11.31967 -9.5521,3.40343 -4.30603,-19.55358 -3.93002,-20.81921 7.0515,-23.73596 11.12441,-2.95468 24.52675,-16.81935 24.52675,-25.37286 0,-7.32934 -16.35816,-2.36896 -27.66965,8.39037 l -9.22321,8.77303 0,-12.36612 c 0,-11.19353 0.85719,-12.36612 9.03969,-12.36612 8.46728,0 27.85317,-14.44268 27.85317,-20.75086 0,-4.69032 -11.47942,-2.99043 -24.44508,3.61983 -11.91227,6.0732 -12.44778,6.08501 -12.44778,0.27435 0,-10.83849 3.58441,-15.994 9.96063,-14.32657 7.55834,1.97655 29.08415,-7.8014 31.59837,-14.35337 2.22833,-5.8069 -18.19365,-6.74284 -28.3639,-1.2999 -5.29148,2.83192 -6.47785,2.36825 -6.43596,-2.51543 0.0808,-9.41063 4.10641,-12.66612 16.15769,-13.06631 6.83239,-0.22706 14.0039,-3.30389 18.44643,-7.91466 l 7.26823,-7.54345 -17.30707,1.52412 c -16.42702,1.4466 -17.17497,1.16688 -14.70929,-5.50093 1.73594,-4.69445 6.58484,-7.67492 14.61588,-8.98392 22.99344,-3.74781 31.59253,-18.59953 9.01574,-15.57136 -14.65777,1.96602 -15.03488,1.66852 -9.9437,-7.84447 2.42611,-4.53322 7.03862,-6.4873 15.31302,-6.4873 13.15553,0 24.81575,-4.98812 24.81575,-10.61589 0,-2.35806 -5.30214,-3.07445 -14.81728,-2.00194 -11.61907,1.30963 -14.43728,0.67987 -13.05675,-2.91772 1.03166,-2.68842 6.81897,-4.632 13.9788,-4.69449 11.56491,-0.10095 23.95692,-6.0575 23.95692,-11.51553 0,-1.37386 -6.03702,-1.92222 -13.41559,-1.21857 -14.92215,1.42306 -18.11224,-2.02277 -4.93459,-5.33015 8.27789,-2.0776 21.81925,-23.07866 17.60092,-27.29696 -3.36768,-3.36768 -15.74141,6.37539 -20.45371,16.10518 l -4.51427,9.32098 -3.83897,-8.42556 c -6.8654,-15.06792 -11.80575,-10.13816 -9.75478,9.73381 2.1853,21.17348 -0.68292,26.90077 -5.77034,11.52231 -1.95261,-5.90228 -5.43674,-11.34791 -7.74254,-12.10132 -5.43294,-1.77526 -5.52219,13.48175 -0.16568,28.29538 5.48724,15.1747 -1.17641,22.95849 -7.8782,9.20245 -2.49336,-5.11791 -6.41996,-9.91985 -8.72577,-10.67092 -6.03295,-1.96519 -5.40346,19.44904 0.83348,28.3535 3.37895,4.82411 4.12425,9.61264 2.27448,14.61309 -2.62449,7.09464 -3.08844,6.86644 -10.05941,-4.94847 -7.17942,-12.16827 -14.0104,-13.52995 -14.0104,-2.79292 0,2.99801 3.2031,12.06765 7.11797,20.15477 5.57623,11.51889 6.35185,16.2887 3.58093,22.02074 -2.67672,5.53712 -3.59233,5.96179 -3.76412,1.74577 -0.12476,-3.06415 -5.13206,-9.70138 -11.12715,-14.74943 -9.42311,-7.93454 -11.05404,-8.39349 -12.03566,-3.38676 -1.66447,8.48958 5.92392,24.70678 14.84404,31.72336 6.35148,4.99607 7.29818,7.87475 5.18654,15.77053 -2.11785,7.91895 -3.14609,8.7051 -5.70827,4.36429 -4.12938,-6.996 -19.86311,-17.00265 -22.53406,-14.3317 -3.53198,3.53202 10.09741,26.72589 19.21572,32.70045 5.33279,3.49416 8.57796,8.72506 8.57796,13.82684 l 0,8.20635 -12.20668,-8.28369 c -12.4012,-8.41566 -24.68618,-10.92703 -24.68618,-5.04647 0,5.94263 20.76726,26.98169 28.5649,28.93879 7.02805,1.76391 11.51865,9.76564 11.63604,20.73402 0.0352,3.27619 -2.27233,3.07975 -9.84932,-0.83847 -11.04663,-5.71243 -33.70552,-6.92966 -33.70552,-1.81067 0,5.35939 24.14436,19.53742 37.32863,21.92009 8.43773,1.52489 13.32741,4.73077 15.93101,10.44504 5.22091,11.45866 5.1429,11.52007 -7.77346,6.12328 -10.75578,-4.49406 -32.21407,-3.56315 -31.96522,1.3867 0.30588,6.0844 19.88271,15.22682 35.35239,16.50969 14.80044,1.22736 18.16047,2.80379 21.9265,10.28747 2.44616,4.8609 4.86865,9.59262 5.38327,10.51494 0.51462,0.92232 -8.04117,1.67694 -19.01284,1.67694 -21.31579,0 -33.08501,5.87405 -23.60328,11.78043 8.59322,5.35295 32.84944,7.55281 43.26067,3.92342 7.75622,-2.70384 10.84016,-2.41343 13.93198,1.31198 6.19415,7.46349 10.1983,5.63418 7.88059,-3.60024 z"
       id="path2987"
       inkscape:connector-curvature="0"
       sodipodi:nodetypes="cscssscssssssssssssscsssssssscsscssssssssssssssscssssssssssssscsssssssscssscssssssssssssscc" />
    <path
       sodipodi:nodetypes="cscssscssssssssssssscsssssssscsscssssssssssssssscssssssssssssscsssssssscssscssssssssssssscc"
       inkscape:connector-curvature="0"
       id="path2989"
       d="m 839.93791,732.13473 c 1.30906,-5.21578 0.68081,-8.38474 -1.66236,-8.38474 -6.50575,0 -17.05815,-21.25002 -17.07123,-34.37744 -0.007,-6.91741 1.4199,-12.57711 3.17067,-12.57711 4.82431,0 19.46736,20.58031 22.07347,31.02354 2.93734,11.7705 5.42446,11.61283 12.76221,-0.80899 l 5.92617,-10.03221 -13.58778,-12.92578 c -10.34019,-9.83638 -13.5878,-15.4829 -13.5878,-23.62475 0,-9.15888 0.84488,-10.24353 5.86932,-7.53506 7.03952,3.79476 18.73432,16.40739 23.47428,25.31662 3.17775,5.97288 3.82452,5.67841 8.84279,-4.02582 6.399,-12.37433 6.61807,-14.15703 1.73963,-14.15703 -8.49237,0 -23.1223,-14.43349 -26.30179,-25.94866 -1.8594,-6.73419 -2.66474,-12.95999 -1.78964,-13.83509 3.30168,-3.30164 19.48003,8.26293 26.96103,19.27226 7.6546,11.2647 7.80881,11.31967 9.5521,3.40343 4.30603,-19.55358 3.93003,-20.81921 -7.0515,-23.73596 -11.1244,-2.95468 -24.52674,-16.81935 -24.52674,-25.37286 0,-7.32934 16.35816,-2.36896 27.66964,8.39037 l 9.22322,8.77303 0,-12.36612 c 0,-11.19353 -0.85719,-12.36612 -9.03969,-12.36612 -8.46728,0 -27.85317,-14.44268 -27.85317,-20.75086 0,-4.69032 11.47941,-2.99043 24.44507,3.61983 11.91227,6.0732 12.44779,6.08501 12.44779,0.27435 0,-10.83849 -3.58441,-15.994 -9.96064,-14.32657 -7.55834,1.97655 -29.08415,-7.8014 -31.59836,-14.35337 -2.22833,-5.8069 18.19364,-6.74284 28.3639,-1.2999 5.29147,2.83192 6.47785,2.36825 6.43596,-2.51543 -0.0808,-9.41063 -4.10641,-12.66612 -16.1577,-13.06631 -6.83239,-0.22706 -14.00389,-3.30389 -18.44643,-7.91466 l -7.26823,-7.54345 17.30708,1.52412 c 16.42701,1.4466 17.17497,1.16688 14.70928,-5.50093 -1.73594,-4.69445 -6.58484,-7.67492 -14.61587,-8.98392 -22.99345,-3.74781 -31.59253,-18.59953 -9.01575,-15.57136 14.65777,1.96602 15.03488,1.66852 9.9437,-7.84447 -2.42611,-4.53322 -7.03862,-6.4873 -15.31302,-6.4873 -13.15552,0 -24.81574,-4.98812 -24.81574,-10.61589 0,-2.35806 5.30214,-3.07445 14.81727,-2.00194 11.61908,1.30963 14.43729,0.67987 13.05676,-2.91772 -1.03166,-2.68842 -6.81898,-4.632 -13.97881,-4.69449 -11.5649,-0.10095 -23.95691,-6.0575 -23.95691,-11.51553 0,-1.37386 6.03701,-1.92222 13.41558,-1.21857 14.92216,1.42306 18.11225,-2.02277 4.93459,-5.33015 -8.27789,-2.0776 -21.81924,-23.07866 -17.60091,-27.29696 3.36768,-3.36768 15.74141,6.37539 20.4537,16.10518 l 4.51428,9.32098 3.83897,-8.42556 c 6.86539,-15.06792 11.80575,-10.13816 9.75477,9.73381 -2.1853,21.17348 0.68292,26.90077 5.77035,11.52231 1.9526,-5.90228 5.43673,-11.34791 7.74253,-12.10132 5.43295,-1.77526 5.52219,13.48175 0.16569,28.29538 -5.48725,15.1747 1.17641,22.95849 7.8782,9.20245 2.49335,-5.11791 6.41996,-9.91985 8.72576,-10.67092 6.03296,-1.96519 5.40347,19.44904 -0.83347,28.3535 -3.37895,4.82411 -4.12426,9.61264 -2.27448,14.61309 2.62449,7.09464 3.08843,6.86644 10.05941,-4.94847 7.17941,-12.16824 14.01039,-13.52992 14.01039,-2.79289 0,2.99802 -3.2031,12.06766 -7.11797,20.15477 -5.57622,11.51889 -6.35184,16.2887 -3.58092,22.02075 2.67671,5.53711 3.59232,5.96178 3.76411,1.74577 0.12477,-3.06416 5.13207,-9.70138 11.12716,-14.74943 9.4231,-7.93455 11.05403,-8.3935 12.03565,-3.38677 1.66448,8.48959 -5.92392,24.70678 -14.84404,31.72337 -6.35147,4.99606 -7.29818,7.87474 -5.18653,15.77052 2.11785,7.91895 3.14609,8.70511 5.70826,4.36429 4.12939,-6.99599 19.86312,-17.00264 22.53406,-14.3317 3.53199,3.53202 -10.09741,26.72589 -19.21571,32.70045 -5.3328,3.49416 -8.57796,8.72507 -8.57796,13.82685 l 0,8.20634 12.20667,-8.28369 c 12.4012,-8.41566 24.68619,-10.92702 24.68619,-5.04647 0,5.94264 -20.76726,26.98169 -28.5649,28.93879 -7.02806,1.76392 -11.51866,9.76564 -11.63604,20.73402 -0.0352,3.27619 2.27233,3.07975 9.84932,-0.83847 11.04662,-5.71242 33.70551,-6.92965 33.70551,-1.81067 0,5.3594 -24.14436,19.53742 -37.32863,21.9201 -8.43773,1.52488 -13.32741,4.73077 -15.931,10.44504 -5.22091,11.45865 -5.1429,11.52006 7.77346,6.12327 10.75577,-4.49405 32.21407,-3.56314 31.96521,1.3867 -0.30588,6.08441 -19.8827,15.22683 -35.35238,16.50969 -14.80044,1.22736 -18.16048,2.80379 -21.9265,10.28748 -2.44617,4.8609 -4.86865,9.59261 -5.38327,10.51493 -0.51463,0.92232 8.04116,1.67695 19.01283,1.67695 21.31579,0 33.08502,5.87405 23.60328,11.78042 -8.59322,5.35296 -32.84943,7.55281 -43.26067,3.92343 -7.75622,-2.70385 -10.84016,-2.41343 -13.93198,1.31197 -6.19414,7.4635 -10.19829,5.63418 -7.88058,-3.60024 z"
       style="fill:#030303" />
  </g>
</svg>
